<svg width="64" height="64" viewBox="0 0 64 64" fill="none" xmlns="http://www.w3.org/2000/svg">
<g clip-path="url(#clip0_1606_1588)">
<path d="M14.2147 38.6633L11.9907 46.9659L3.86192 47.1378C1.43262 42.632 0.0546875 37.4768 0.0546875 31.9985C0.0546875 26.701 1.34302 21.7054 3.62669 17.3066H3.62844L10.8653 18.6334L14.0355 25.8268C13.372 27.7612 13.0103 29.8377 13.0103 31.9985C13.0106 34.3435 13.4353 36.5904 14.2147 38.6633Z" fill="#FBBB00"/>
<path d="M63.3812 26.0332C63.7481 27.9657 63.9394 29.9615 63.9394 32.0012C63.9394 34.2883 63.6989 36.5194 63.2408 38.6714C61.6856 45.9944 57.6221 52.389 51.9929 56.9141L51.9912 56.9124L42.876 56.4473L41.5859 48.3939C45.3211 46.2033 48.2402 42.7752 49.7779 38.6714H32.6953V26.0332H50.0271H63.3812Z" fill="#518EF8"/>
<path d="M51.9966 56.9123L51.9983 56.914C46.5236 61.3145 39.5691 63.9475 31.9985 63.9475C19.8326 63.9475 9.25519 57.1475 3.85938 47.1405L14.2121 38.666C16.91 45.8662 23.8557 50.9917 31.9985 50.9917C35.4985 50.9917 38.7775 50.0455 41.5912 48.3938L51.9966 56.9123Z" fill="#28B446"/>
<path d="M52.3906 7.40739L42.0414 15.8802C39.1294 14.06 35.6872 13.0085 31.9994 13.0085C23.6722 13.0085 16.5966 18.3691 14.0339 25.8275L3.62675 17.3073H3.625C8.94182 7.05635 19.6526 0.0527344 31.9994 0.0527344C39.7507 0.0527344 46.8579 2.81385 52.3906 7.40739Z" fill="#F14336"/>
</g>
<defs>
<clipPath id="clip0_1606_1588">
<rect width="63.8927" height="63.8927" fill="white" transform="translate(0.0546875 0.0527344)"/>
</clipPath>
</defs>
</svg>
