<svg width="464" height="57" viewBox="0 0 464 57" fill="none" xmlns="http://www.w3.org/2000/svg">
<path d="M87.3614 13.4248C83.9333 12.3169 80.8822 11.4486 81.2764 9.29263C81.7049 6.83728 85.0988 5.88908 88.5098 5.15047C100.32 2.61527 112.747 1.87665 125.123 1.17798C142.178 0.219789 159.267 -0.0596961 176.408 0.0101718C205.41 0.129945 234.223 1.53728 262.883 4.00262C270.888 4.69132 278.721 3.78303 286.623 3.62333C298.741 3.3738 310.826 2.56535 322.927 2.26591C353.403 1.50735 383.897 0.728815 414.407 1.19793C428.069 1.40753 441.798 1.42749 455.357 2.6951C458.871 3.02447 463.824 2.91469 463.996 5.78925C464.167 8.71372 459.282 8.73368 455.734 9.12294C443.324 10.4604 430.76 11.0693 418.195 11.5883C392.793 12.6463 367.356 13.5146 341.165 13.9438C346.359 15.1815 350.935 16.2295 355.443 17.3674C357.294 17.8365 359.077 18.4253 360.722 19.1041C368.573 22.318 368.333 26.4602 359.865 29.1052C349.152 32.4488 337.24 33.6366 325.464 34.9341C296.102 38.158 266.448 40.304 236.829 42.6296C198.896 45.6039 160.895 48.3388 123.82 54.1777C117.512 55.1659 111.101 55.9045 104.691 56.673C103.011 56.8726 100.457 57.5014 99.8056 56.1939C99.2399 55.0461 101.897 54.8464 103.371 54.4672C126.614 48.5484 150.988 44.8853 175.928 42.42C221.214 37.9584 266.911 35.1936 312.231 30.9816C325.601 29.7339 339.022 28.5761 351.895 26.001C354.02 25.5718 357.26 25.3523 357.449 23.925C357.654 22.2781 354.329 21.8688 352.169 21.2899C340.102 18.0061 327.195 16.2694 314.305 14.5127C311.066 14.0736 307.809 14.8022 304.552 14.8321C282.303 15.0517 260.038 15.2114 237.789 15.4909C202.77 15.9301 167.752 16.1796 132.716 15.8901C107.947 15.6805 83.419 17.5869 58.7877 18.5351C40.31 19.2538 21.8665 20.202 3.78301 22.6873C2.3946 22.8769 0.851958 23.1165 0.166328 22.0984C-0.45074 21.1602 0.766219 20.5813 1.89751 20.0822C4.99999 18.7448 8.68525 18.2956 12.3362 17.8564C28.2257 15.94 44.3724 15.2713 60.519 14.5926C69.1579 14.2333 77.7969 13.834 87.2928 13.4248H87.3614ZM218.471 6.83725C186.161 3.57343 104.434 5.62956 93.4978 9.7318C105.582 11.0992 117.495 11.8578 129.442 11.4685C145.726 10.9295 161.975 9.97133 178.225 9.12294C191.646 8.41428 205.05 7.6058 218.454 6.83725H218.471ZM438.679 6.35818C409.797 5.56967 311.888 7.08679 305.289 8.46418C310.963 9.15288 316.036 10.3506 321.607 10.2009C340.565 9.69188 359.505 9.20279 378.463 8.75364C398.192 8.28453 417.887 7.55591 438.679 6.35818ZM226.596 11.0992H279.544C260.38 8.01505 241.371 11.1292 226.596 11.0992Z" fill="#83CD20"/>
</svg>
