<svg width="394" height="128" viewBox="0 0 394 128" fill="none" xmlns="http://www.w3.org/2000/svg">
<path d="M2.45542 0C1.91109 14.1527 7.24557 45.6153 32.9382 58.2438C44.9136 64.13 67.515 65.3801 85.7387 77.2956C99.8914 86.5493 105.698 101.065 105.879 104.512C105.879 108.686 107.403 118.338 113.5 123.564" stroke="#F78E1E" stroke-width="3.26601"/>
<path d="M120.576 0C125.656 8.16502 136.361 26.0192 138.539 32.1158C141.261 39.7365 140.428 52.0316 139.628 54.4335C138.757 57.0463 138.539 59.8768 134.184 65.3202C125.953 75.6097 118.398 86.8759 118.398 88.1823" stroke="#4CD080" stroke-width="3.26601"/>
<path d="M270.812 0C269.179 4.35468 263.735 13.6084 253.393 19.5961C245.119 24.3862 225.632 21.2291 215.834 22.3177C206.036 23.4064 200.048 34.2931 198.415 37.5591C195.738 42.9133 194.774 46.3126 194.061 52.2562C192.428 65.8645 192.098 90.0877 194.605 99.6133C197.327 109.956 197.327 127.919 197.327 127.919" stroke="#54B948" stroke-width="3.26601"/>
<path d="M223.455 0C223.455 2.90312 226.394 10.1246 235.975 13.6084C246.861 15.2414 257.204 16.33 258.837 16.33C260.47 16.33 265.913 17.4187 265.913 17.4187" stroke="#F78E1F" stroke-width="3.26601"/>
<path d="M393.832 0.544434C383.852 14.6971 376.413 26.1282 359.539 46.2686C356.585 49.7936 353.007 51.1676 349.741 52.8006C343.448 55.9468 330.145 55.5223 323.613 56.6109C317.081 57.6996 314.774 60.9055 313.815 63.143C312.182 66.9533 312.182 70.2193 312.726 73.4853C312.994 75.0961 313.887 77.731 314.903 79.473C318.714 86.005 326.334 94.7144 326.334 94.7144" stroke="#26BCD7" stroke-width="2.17734"/>
<path d="M322.524 97.9802C322.524 97.9802 323.133 102.596 321.435 102.879C318.169 103.424 312.726 104.512 312.726 107.778" stroke="#26BCD7" stroke-width="2.17734"/>
<path d="M329.269 62.0543L339.067 67.7112L329.269 73.3681L329.269 62.0543Z" fill="#F78E1E"/>
<path d="M88.6735 62.0543L98.4715 67.7112L88.6735 73.3681L88.6735 62.0543Z" fill="#F78E1E"/>
<path d="M276.362 54.9778L281.261 57.8063L276.362 60.6347L276.362 54.9778Z" fill="#FF3F3F"/>
<path d="M326.879 35.9261L334.5 34.8374V40.2808L326.879 41.3694V35.9261Z" fill="#FF3F3F"/>
<path d="M253.938 31.3899L260.47 30.4827V35.0188L253.938 35.926V31.3899Z" fill="#26BCD6"/>
<path d="M177.73 12.8826L183.174 11.9753V16.5115L177.73 17.4187V12.8826Z" fill="#C4C4C4"/>
<path d="M27.4941 72.7595L34.0262 71.8523V76.3884L27.4941 77.2956V72.7595Z" fill="#FF3F3F"/>
<circle cx="312.182" cy="23.4064" r="1.633" fill="#26BCD7"/>
<circle cx="304.561" cy="80.0173" r="2.72167" fill="#54B948"/>
<rect x="155.957" y="4.35474" width="4.35468" height="4.35468" fill="#26BCD6"/>
<circle cx="108.056" cy="13.0641" r="2.17734" fill="#26BCD7"/>
<path d="M84.1056 41.3694C83.7427 43.0024 83.5612 46.9942 86.2829 47.9014C87.9159 48.4457 94.9923 48.9901 96.0809 53.8891" stroke="#FFD2A6" stroke-width="1.08867"/>
<path d="M221.822 32.1157C221.822 32.1157 221.822 36.4704 219.645 37.0147C217.468 37.5591 215.559 37.1308 213.657 38.1034C212.051 38.9246 210.936 40.2807 210.936 41.3694" stroke="#FFD2A6" stroke-width="1.08867"/>
</svg>
