<svg width="438" height="438" viewBox="0 0 438 438" fill="none" xmlns="http://www.w3.org/2000/svg">
<g clip-path="url(#clip0_1208_1966)">
<path d="M176.325 220.791C176.443 220.673 176.551 220.648 176.659 220.712C176.762 220.766 176.816 220.845 176.816 220.948C176.934 221.056 176.88 221.218 176.659 221.439C167.387 225.25 157.982 228.879 148.45 232.322C138.913 235.754 129.346 238.996 119.75 242.045L130.377 298.129C130.598 299.764 129.891 300.805 128.256 301.252C127.927 301.252 127.598 301.218 127.274 301.154C126.945 301.1 126.616 301.022 126.291 300.918C120.398 297.108 114.505 293.341 108.612 289.623C102.729 285.92 96.7911 282.271 90.7948 278.681C85.4615 275.185 79.5241 271.561 72.9777 267.799C66.4412 264.042 60.2288 260.963 54.3356 258.566C53.1275 258.016 52.8034 257.201 53.3534 256.111C53.4565 255.561 53.9476 255.182 54.8267 254.971C64.5308 253.336 74.2595 251.396 84.0176 249.157C93.7709 246.917 103.45 244.437 113.051 241.712L111.892 236.152C107.973 218.173 104.217 200.184 100.617 182.19C89.0661 199.963 76.877 217.466 64.0593 234.699C51.2515 251.921 37.2159 267.995 21.9623 282.925C21.8444 283.042 21.6775 283.042 21.4712 282.925C21.3533 282.718 21.3533 282.551 21.4712 282.433C28.6609 273.608 35.6591 264.616 42.4706 255.462C49.292 246.298 55.8678 237.026 62.1932 227.646C68.7248 218.389 75.0698 208.965 81.2282 199.379C87.3964 189.783 93.4173 180.182 99.3006 170.581C99.9538 169.377 100.995 168.773 102.424 168.773C102.748 168.773 103.072 168.832 103.387 168.95C103.711 169.058 104.04 169.22 104.369 169.441C105.243 169.982 105.793 170.797 106.019 171.897C108.19 182.362 110.287 192.852 112.305 203.366C114.318 213.886 116.312 224.435 118.277 235.013L119.259 239.924C128.963 237.085 138.579 234.085 148.116 230.927C157.663 227.759 167.063 224.381 176.325 220.791ZM61.3681 257.584C66.8144 260.088 72.1821 262.809 77.4762 265.756C82.7653 268.702 87.971 271.703 93.0931 274.753C98.2104 277.807 103.357 280.857 108.533 283.907C113.719 286.956 118.817 290.065 123.836 293.238L113.543 244.01C104.924 246.632 96.2804 249.088 87.6125 251.376C78.9397 253.655 70.1932 255.727 61.3681 257.584Z" fill="#83CD20"/>
<path d="M417.9 242.838V247.257H447.621V262.167H343.429V266.587H447.621V281.497H333.765C332.429 281.497 331.27 281.075 330.288 280.24C329.305 279.4 328.706 278.315 328.5 276.979V252.502C328.5 251.039 329.021 249.801 330.072 248.79C331.132 247.768 332.36 247.257 333.765 247.257H402.99V227.928H440.176C442.204 227.928 443.953 228.664 445.421 230.128C446.884 231.596 447.621 233.345 447.621 235.373V242.838H417.9Z" fill="#034833"/>
<path d="M277.89 240.826V286.931C277.89 288.959 277.153 290.707 275.689 292.176C274.221 293.654 272.473 294.395 270.445 294.395H233.141V279.486H262.98V275.066H233.141V246.071C233.141 244.608 233.642 243.37 234.653 242.358C235.675 241.337 236.922 240.826 238.405 240.826H277.89ZM262.98 260.156V255.638H248.07V260.156H262.98Z" fill="#034833"/>
<path d="M270.539 275.064V260.154H292.796V275.064H270.539Z" fill="#034833"/>
<path d="M285.453 275.064V260.154H307.71V275.064H285.453Z" fill="#034833"/>
<path d="M300.367 275.064V260.154H322.624V275.064H300.367Z" fill="#034833"/>
<path d="M315.289 275.064V260.154H337.546V275.064H315.289Z" fill="#034833"/>
<path d="M209.324 248.17L201.86 255.634L194.415 248.17L201.86 240.705L209.324 248.17ZM204.079 260.153H218.989V289.147C218.989 290.611 218.464 291.848 217.418 292.86C216.367 293.881 215.144 294.392 213.744 294.392H175.085C173.602 294.392 172.354 293.881 171.333 292.86C170.321 291.848 169.82 290.611 169.82 289.147V265.398C169.82 263.934 170.321 262.697 171.333 261.685C172.354 260.663 173.602 260.153 175.085 260.153H199.561V275.062H184.75V279.482H204.079V260.153Z" fill="#034833"/>
<path d="M390.899 211.781L412.93 204.778" stroke="#83CD20" stroke-width="1.61796" stroke-linecap="round"/>
<mask id="mask0_1208_1966" style="mask-type:luminance" maskUnits="userSpaceOnUse" x="248" y="211" width="14" height="14">
<path d="M248.5 211.961H261.342V224.803H248.5V211.961Z" fill="white"/>
</mask>
<g mask="url(#mask0_1208_1966)">
<mask id="mask1_1208_1966" style="mask-type:luminance" maskUnits="userSpaceOnUse" x="248" y="211" width="14" height="14">
<path d="M254.924 211.959C251.378 211.959 248.5 214.832 248.5 218.378C248.5 221.923 251.378 224.801 254.924 224.801C258.469 224.801 261.342 221.923 261.342 218.378C261.342 214.832 258.469 211.959 254.924 211.959Z" fill="white"/>
</mask>
<g mask="url(#mask1_1208_1966)">
<path d="M254.924 211.959C251.378 211.959 248.5 214.832 248.5 218.378C248.5 221.923 251.378 224.801 254.924 224.801C258.469 224.801 261.342 221.923 261.342 218.378C261.342 214.832 258.469 211.959 254.924 211.959Z" stroke="#83CD20" stroke-width="2.56924"/>
</g>
</g>
<path d="M228.63 343.664C235.35 343.664 242.069 343.485 248.776 343.7C259.708 344.046 270.652 344.464 281.405 346.767C282.981 347.101 284.544 347.614 286.048 348.223C287.969 348.999 289.413 350.347 289.354 352.591C289.294 354.835 287.743 356.052 285.821 356.816C282.575 358.117 279.162 358.749 275.748 359.358C260.902 361.996 245.948 363.511 230.874 364.132C226.22 364.323 221.577 364.8 216.923 364.705C216.016 364.681 214.571 365.075 214.428 363.869C214.261 362.473 215.729 362.497 216.767 362.318C230.337 360.026 243.99 358.379 257.62 356.53C264.255 355.623 270.891 354.668 277.455 352.591C275.39 352.293 273.326 351.863 271.249 351.732C250.148 350.336 229.012 349.954 207.888 350.491C193.805 350.849 179.734 351.29 165.663 350.359C164.912 350.312 164.148 350.252 163.408 350.073C161.618 349.643 160.054 348.844 160.006 346.719C159.959 344.619 161.451 343.652 163.241 343.199C165.126 342.721 167.048 342.435 168.922 341.755C162.322 342.518 155.722 343.187 149.146 344.07C130.802 346.552 112.459 349.094 94.1274 351.72C91.287 352.126 88.2795 352.15 85.7851 354.011C84.8781 354.68 83.8278 354.513 83.2789 353.474C82.5389 352.066 83.076 350.861 84.4365 350.24C87.1218 348.999 90.0577 348.605 92.9339 348.163C122.699 343.604 152.512 339.403 182.42 335.942C205.871 333.221 229.37 330.822 252.929 329.116C271.082 327.803 289.234 326.693 307.411 325.822C334.61 324.509 361.797 324.426 389.008 324.855C392.564 324.915 396.121 325.44 399.665 325.858C401.157 326.037 402.41 326.729 402.362 328.531C402.315 330.142 401.133 330.703 399.797 331.025C393.447 332.577 386.931 332.851 380.462 333.317C362.644 334.606 344.802 335.644 326.972 336.778C310.12 337.852 293.256 338.902 276.405 340.024C260.472 341.086 244.539 342.256 228.618 343.366C228.618 343.461 228.618 343.557 228.618 343.652L228.63 343.664ZM378.422 328.985C311.325 328.758 244.515 333.353 177.884 340.895C244.671 335.966 311.588 333.126 378.422 328.985Z" fill="#83CD20"/>
</g>
<defs>
<clipPath id="clip0_1208_1966">
<rect width="438" height="438" fill="white"/>
</clipPath>
</defs>
</svg>
