<svg xmlns="http://www.w3.org/2000/svg" xmlns:xlink="http://www.w3.org/1999/xlink" width="500" zoomAndPan="magnify" viewBox="0 0 375 374.999991" height="500" preserveAspectRatio="xMidYMid meet" version="1.0"><defs><g/></defs><g fill="#83cd20" fill-opacity="1"><g transform="translate(68.43443, 271.375413)"><g><path d="M 253.0625 -108.078125 C 253.25 -108.253906 253.429688 -108.296875 253.609375 -108.203125 C 253.785156 -108.117188 253.875 -107.988281 253.875 -107.8125 C 254.050781 -107.632812 253.960938 -107.363281 253.609375 -107 C 238.441406 -100.757812 223.054688 -94.832031 207.453125 -89.21875 C 191.847656 -83.601562 176.203125 -78.296875 160.515625 -73.296875 L 177.890625 18.453125 C 178.253906 21.128906 177.097656 22.828125 174.421875 23.546875 C 173.890625 23.546875 173.351562 23.5 172.8125 23.40625 C 172.28125 23.320312 171.742188 23.1875 171.203125 23 C 161.578125 16.757812 151.945312 10.609375 142.3125 4.546875 C 132.6875 -1.515625 122.96875 -7.488281 113.15625 -13.375 C 104.414062 -19.082031 94.695312 -25.007812 84 -31.15625 C 73.300781 -37.3125 63.132812 -42.351562 53.5 -46.28125 C 51.539062 -47.175781 51.003906 -48.515625 51.890625 -50.296875 C 52.078125 -51.179688 52.882812 -51.804688 54.3125 -52.171875 C 70.175781 -54.835938 86.085938 -58 102.046875 -61.65625 C 118.015625 -65.3125 133.847656 -69.367188 149.546875 -73.828125 L 147.671875 -82.9375 C 141.242188 -112.351562 135.085938 -141.773438 129.203125 -171.203125 C 110.304688 -142.140625 90.378906 -113.515625 69.421875 -85.328125 C 48.460938 -57.148438 25.5 -30.847656 0.53125 -6.421875 C 0.351562 -6.242188 0.0859375 -6.242188 -0.265625 -6.421875 C -0.441406 -6.773438 -0.441406 -7.039062 -0.265625 -7.21875 C 11.503906 -21.664062 22.960938 -36.378906 34.109375 -51.359375 C 45.253906 -66.335938 56 -81.5 66.34375 -96.84375 C 77.039062 -112 87.425781 -127.421875 97.5 -143.109375 C 107.582031 -158.804688 117.4375 -174.503906 127.0625 -190.203125 C 128.132812 -192.160156 129.832031 -193.140625 132.15625 -193.140625 C 132.6875 -193.140625 133.21875 -193.050781 133.75 -192.875 C 134.289062 -192.695312 134.828125 -192.429688 135.359375 -192.078125 C 136.785156 -191.179688 137.675781 -189.84375 138.03125 -188.0625 C 141.601562 -170.9375 145.035156 -153.769531 148.328125 -136.5625 C 151.628906 -119.351562 154.890625 -102.097656 158.109375 -84.796875 L 159.703125 -76.78125 C 175.578125 -81.414062 191.316406 -86.316406 206.921875 -91.484375 C 222.523438 -96.660156 237.90625 -102.191406 253.0625 -108.078125 Z M 65 -47.890625 C 73.914062 -43.785156 82.695312 -39.320312 91.34375 -34.5 C 100 -29.6875 108.519531 -24.785156 116.90625 -19.796875 C 125.289062 -14.804688 133.71875 -9.8125 142.1875 -4.8125 C 150.65625 0.175781 158.992188 5.257812 167.203125 10.4375 L 150.34375 -70.09375 C 136.25 -65.8125 122.113281 -61.796875 107.9375 -58.046875 C 93.757812 -54.304688 79.445312 -50.921875 65 -47.890625 Z M 65 -47.890625 "/></g></g></g></svg>