<svg width="39" height="31" viewBox="0 0 39 31" fill="none" xmlns="http://www.w3.org/2000/svg">
<path d="M38.459 27.1254H35.1455V10.058C35.1457 9.96615 35.1221 9.87579 35.077 9.79571C35.0319 9.71564 34.967 9.64857 34.8884 9.601L19.7682 0.453972C19.685 0.403588 19.5895 0.376953 19.4922 0.376953C19.3949 0.376953 19.2994 0.403588 19.2161 0.453972L4.09602 9.60191C4.01741 9.64948 3.95243 9.71655 3.90738 9.79663C3.86232 9.8767 3.83872 9.96706 3.83887 10.0589V27.1263H0.525391C0.455318 27.1263 0.385933 27.1401 0.321202 27.167C0.256471 27.1938 0.197664 27.2331 0.148144 27.2827C0.0986234 27.3323 0.0593606 27.3911 0.0326005 27.4559C0.00584038 27.5207 -0.00789223 27.5901 -0.00781215 27.6601V30.0976C-0.00781215 30.239 0.0483644 30.3747 0.148359 30.4747C0.248354 30.5747 0.383977 30.6308 0.525391 30.6308H38.459C38.6004 30.6308 38.736 30.5747 38.836 30.4747C38.936 30.3747 38.9922 30.239 38.9922 30.0976V27.6601C38.9924 27.59 38.9787 27.5205 38.952 27.4556C38.9253 27.3908 38.8861 27.3318 38.8366 27.2821C38.787 27.2324 38.7282 27.193 38.6634 27.1661C38.5986 27.1392 38.5291 27.1254 38.459 27.1254ZM4.90527 21.7187H14.3125V24.123H4.90527V21.7187ZM15.3789 16.1222C15.3796 15.4558 15.6447 14.8168 16.1159 14.3456C16.5872 13.8743 17.2261 13.6093 17.8926 13.6086H18.959V19.0515C18.9583 20.4966 18.6367 21.9235 18.0176 23.2293C17.3985 24.535 16.4973 25.6871 15.3789 26.6023V16.1222ZM34.0791 24.1236H24.6719V21.7187H34.0791V24.1236ZM23.6055 26.6023C22.4871 25.6871 21.5858 24.5351 20.9667 23.2293C20.3475 21.9235 20.0261 20.4966 20.0254 19.0515V13.6086H21.0918C21.7582 13.6093 22.3972 13.8743 22.8684 14.3456C23.3397 14.8168 23.6047 15.4558 23.6055 16.1222V26.6023ZM16.5544 26.992C17.9058 25.7418 18.9168 24.1683 19.4922 22.4195C20.0903 24.2299 21.1512 25.8525 22.5695 27.1266H16.4148C16.4627 27.0812 16.5063 27.0358 16.5544 26.992ZM24.6719 25.19H34.0791V27.1254H24.6719V25.19ZM19.4922 1.53318L34.0791 10.3588V20.6523H24.6719V16.1222C24.6707 15.1731 24.2932 14.2631 23.622 13.592C22.9509 12.9208 22.0409 12.5433 21.0918 12.5421H17.8926C16.9434 12.5432 16.0334 12.9207 15.3622 13.5919C14.6911 14.2631 14.3135 15.1731 14.3125 16.1222V20.6523H4.90527V10.3588L19.4922 1.53318ZM4.90527 25.19H14.3125V27.1254H4.90527V25.19ZM37.9258 29.5629H1.05859V28.1918H37.9258V29.5629Z" fill="white"/>
<path d="M9.61102 18.7832C10.1167 18.7832 10.611 18.6334 11.0315 18.3525C11.452 18.0716 11.7797 17.6723 11.9733 17.2051C12.1668 16.738 12.2175 16.2239 12.1189 15.728C12.0203 15.232 11.7768 14.7764 11.4192 14.4189C11.0617 14.0613 10.6062 13.8177 10.1102 13.7191C9.61426 13.6204 9.10019 13.671 8.63301 13.8645C8.16583 14.058 7.76652 14.3857 7.48558 14.8061C7.20464 15.2266 7.05469 15.7209 7.05469 16.2266C7.05541 16.9043 7.32496 17.5542 7.8042 18.0335C8.28344 18.5128 8.93323 18.7824 9.61102 18.7832ZM9.61102 14.7363C9.90577 14.7363 10.1939 14.8236 10.439 14.9873C10.6841 15.151 10.8752 15.3838 10.988 15.6561C11.1009 15.9284 11.1304 16.228 11.0729 16.5171C11.0155 16.8062 10.8736 17.0718 10.6652 17.2802C10.4568 17.4886 10.1912 17.6306 9.90216 17.6881C9.61308 17.7457 9.31343 17.7162 9.04111 17.6034C8.76878 17.4906 8.53602 17.2996 8.37226 17.0545C8.2085 16.8094 8.12109 16.5213 8.12109 16.2266C8.12182 15.8316 8.27901 15.453 8.55826 15.1737C8.83751 14.8944 9.21606 14.7371 9.61102 14.7363Z" fill="white"/>
<path d="M19.4863 10.8691C19.992 10.8691 20.4863 10.7192 20.9068 10.4382C21.3273 10.1572 21.655 9.75788 21.8484 9.29066C22.0419 8.82345 22.0925 8.30935 21.9938 7.81338C21.895 7.31742 21.6515 6.86187 21.2938 6.50436C20.9362 6.14684 20.4805 5.90342 19.9845 5.80487C19.4885 5.70633 18.9745 5.75709 18.5073 5.95073C18.0402 6.14438 17.6409 6.47221 17.3601 6.89277C17.0793 7.31333 16.9295 7.80771 16.9297 8.31341C16.9307 8.99109 17.2004 9.64072 17.6796 10.1198C18.1589 10.5989 18.8086 10.8684 19.4863 10.8691ZM19.4863 6.82227C19.781 6.82227 20.0691 6.90964 20.3142 7.07335C20.5592 7.23706 20.7502 7.46975 20.863 7.742C20.9758 8.01425 21.0054 8.31383 20.948 8.60289C20.8906 8.89194 20.7487 9.15747 20.5404 9.36592C20.3321 9.57437 20.0666 9.71637 19.7776 9.77397C19.4886 9.83158 19.189 9.8022 18.9167 9.68954C18.6443 9.57689 18.4115 9.38603 18.2477 9.14108C18.0838 8.89614 17.9963 8.60811 17.9961 8.31341C17.9966 7.91824 18.1537 7.53938 18.433 7.25987C18.7124 6.98036 19.0912 6.82299 19.4863 6.82227Z" fill="white"/>
<path d="M29.3766 18.7832C29.8823 18.7832 30.3766 18.6334 30.7971 18.3525C31.2176 18.0716 31.5453 17.6723 31.7389 17.2051C31.9324 16.738 31.9831 16.2239 31.8845 15.728C31.7859 15.232 31.5424 14.7764 31.1849 14.4189C30.8273 14.0613 30.3718 13.8177 29.8758 13.7191C29.3799 13.6204 28.8658 13.671 28.3986 13.8645C27.9315 14.058 27.5321 14.3857 27.2512 14.8061C26.9703 15.2266 26.8203 15.7209 26.8203 16.2266C26.821 16.9043 27.0906 17.5542 27.5698 18.0335C28.0491 18.5128 28.6989 18.7824 29.3766 18.7832ZM29.3766 14.7363C29.6714 14.7363 29.9595 14.8236 30.2046 14.9873C30.4498 15.151 30.6408 15.3838 30.7536 15.6561C30.8665 15.9284 30.896 16.228 30.8386 16.5171C30.7811 16.8062 30.6392 17.0718 30.4308 17.2802C30.2224 17.4886 29.9569 17.6306 29.6678 17.6881C29.3787 17.7457 29.0791 17.7162 28.8067 17.6034C28.5344 17.4906 28.3017 17.2996 28.1379 17.0545C27.9741 16.8094 27.8867 16.5213 27.8867 16.2266C27.8874 15.8316 28.0446 15.453 28.3239 15.1737C28.6031 14.8944 28.9817 14.7371 29.3766 14.7363Z" fill="white"/>
</svg>
