<svg width="39" height="39" viewBox="0 0 39 39" fill="none" xmlns="http://www.w3.org/2000/svg">
<path d="M36.147 11.0464C36.147 9.42568 35.6665 7.8413 34.7661 6.49367C33.8656 5.14603 32.5858 4.09566 31.0885 3.4754C29.5911 2.85513 27.9434 2.69283 26.3538 3.00901C24.7642 3.32519 23.304 4.10565 22.158 5.2517C21.0119 6.39775 20.2314 7.85791 19.9153 9.44753C19.5991 11.0371 19.7614 12.6848 20.3816 14.1822C21.0019 15.6796 22.0523 16.9594 23.3999 17.8598C24.7476 18.7602 26.3319 19.2408 27.9527 19.2407C30.1252 19.2383 32.208 18.3742 33.7442 16.838C35.2804 15.3018 36.1445 13.219 36.147 11.0464ZM20.8245 11.0464C20.8245 9.63661 21.2425 8.25842 22.0257 7.08616C22.8089 5.9139 23.9222 5.00022 25.2246 4.46066C26.5271 3.9211 27.9604 3.77989 29.3431 4.0549C30.7259 4.32991 31.996 5.00878 32.993 6.00566C33.9899 7.00253 34.6688 8.27265 34.9439 9.65539C35.2189 11.0381 35.0778 12.4714 34.5383 13.7739C33.9988 15.0764 33.0851 16.1897 31.9129 16.973C30.7407 17.7562 29.3625 18.1743 27.9527 18.1743C26.0629 18.1721 24.2511 17.4205 22.9148 16.0842C21.5785 14.748 20.8268 12.9362 20.8245 11.0464Z" fill="white"/>
<path d="M31.9884 27.4634H13.5929V25.6576H27.9513C28.0248 25.6573 28.0974 25.6418 28.1646 25.6119H28.1664C28.6094 25.4162 38.9962 20.7033 38.9962 11.0469C38.9962 8.11758 37.8325 5.30826 35.7612 3.23694C33.6899 1.16561 30.8806 0.00195313 27.9513 0.00195312C25.022 0.00195313 22.2127 1.16561 20.1413 3.23694C18.07 5.30826 16.9063 8.11758 16.9063 11.0469C16.9063 16.066 19.7125 19.7466 22.4696 22.1536H13.3644C12.496 22.1546 11.6634 22.5 11.0494 23.1141C10.4353 23.7281 10.0899 24.5606 10.089 25.429V27.691C10.0899 28.5594 10.4353 29.392 11.0494 30.006C11.6634 30.6201 12.496 30.9655 13.3644 30.9664H31.7599V32.5456H9.06065C8.65367 31.5316 7.90636 30.691 6.94704 30.168C5.98773 29.645 4.87626 29.4723 3.80347 29.6795C2.73069 29.8868 1.76353 30.461 1.06806 31.3037C0.372582 32.1464 -0.0078125 33.205 -0.0078125 34.2976C-0.0078125 35.3902 0.372582 36.4487 1.06806 37.2914C1.76353 38.1341 2.73069 38.7084 3.80347 38.9157C4.87626 39.1229 5.98773 38.9502 6.94704 38.4272C7.90636 37.9042 8.65367 37.0635 9.06065 36.0495H31.9884C32.8568 36.0486 33.6893 35.7032 34.3034 35.0891C34.9174 34.4751 35.2628 33.6425 35.2638 32.7741V30.7379C35.2626 29.8697 34.9171 29.0374 34.303 28.4235C33.689 27.8097 32.8566 27.4644 31.9884 27.4634ZM17.9728 11.0469C17.9728 8.40041 19.0241 5.86233 20.8954 3.991C22.7667 2.11966 25.3048 1.06836 27.9513 1.06836C30.5977 1.06836 33.1358 2.11966 35.0071 3.991C36.8785 5.86233 37.9298 8.40041 37.9298 11.0469C37.9298 19.2683 29.426 23.8093 27.951 24.5345C26.4751 23.8105 17.9728 19.2798 17.9728 11.0469ZM4.69965 37.9365C3.98028 37.9365 3.27706 37.7232 2.67891 37.3235C2.08076 36.9238 1.61455 36.3558 1.33923 35.6912C1.06391 35.0266 0.991842 34.2953 1.13214 33.5897C1.27244 32.8842 1.6188 32.236 2.12744 31.7273C2.63607 31.2186 3.28413 30.8721 3.98967 30.7317C4.69521 30.5913 5.42654 30.6632 6.09119 30.9384C6.75584 31.2137 7.32396 31.6798 7.72371 32.2779C8.12346 32.8759 8.33689 33.5791 8.33701 34.2985C8.33613 35.263 7.95264 36.1877 7.27071 36.8697C6.58878 37.5518 5.66413 37.9354 4.69965 37.9365ZM34.1974 32.7751C34.1967 33.3607 33.9638 33.9222 33.5497 34.3363C33.1355 34.7505 32.574 34.9834 31.9884 34.984H9.34766C9.42201 34.53 9.42201 34.067 9.34766 33.6129H31.9884C32.2105 33.6127 32.4235 33.5244 32.5806 33.3673C32.7377 33.2102 32.826 32.9972 32.8263 32.7751V30.7388C32.8261 30.5167 32.7378 30.3036 32.5807 30.1465C32.4236 29.9894 32.2106 29.9011 31.9884 29.9009H13.3644C12.7787 29.9003 12.2172 29.6674 11.8031 29.2532C11.389 28.8391 11.156 28.2776 11.1554 27.692V25.43C11.156 24.8443 11.389 24.2828 11.8031 23.8687C12.2172 23.4546 12.7787 23.2216 13.3644 23.221H23.7874C24.443 23.712 25.1229 24.1696 25.8246 24.5921H13.3644C13.1422 24.5922 12.9292 24.6806 12.7721 24.8377C12.615 24.9948 12.5266 25.2078 12.5265 25.43V27.692C12.5267 27.9141 12.6151 28.1271 12.7721 28.2842C12.9292 28.4412 13.1422 28.5296 13.3644 28.5298H31.9884C32.574 28.5305 33.1355 28.7634 33.5497 29.1776C33.9638 29.5917 34.1967 30.1532 34.1974 30.7388V32.7751Z" fill="white"/>
</svg>
