<svg width="39" height="39" viewBox="0 0 39 39" fill="none" xmlns="http://www.w3.org/2000/svg">
<g clip-path="url(#clip0_3729_923)">
<path d="M5.77706 36.0042H3.26685V33.3222C3.26685 33.1596 3.21452 33.0036 3.12137 32.8886C3.02822 32.7736 2.90188 32.709 2.77014 32.709C2.63841 32.709 2.51207 32.7736 2.41892 32.8886C2.32577 33.0036 2.27344 33.1596 2.27344 33.3222V36.616C2.27344 36.7787 2.32577 36.9346 2.41892 37.0496C2.51207 37.1646 2.63841 37.2292 2.77014 37.2292H5.77706C5.9088 37.2292 6.03514 37.1646 6.12829 37.0496C6.22144 36.9346 6.27377 36.7787 6.27377 36.616C6.27377 36.4534 6.22144 36.2974 6.12829 36.1824C6.03514 36.0674 5.9088 36.0028 5.77706 36.0028V36.0042Z" fill="white"/>
<path d="M33.5583 32.709C33.4931 32.7089 33.4285 32.7248 33.3682 32.7556C33.3079 32.7864 33.2531 32.8315 33.207 32.8885C33.1609 32.9454 33.1243 33.0131 33.0993 33.0875C33.0744 33.1619 33.0616 33.2417 33.0616 33.3222V36.0042H30.5514C30.4197 36.0042 30.2933 36.0688 30.2002 36.1838C30.107 36.2988 30.0547 36.4548 30.0547 36.6174C30.0547 36.7801 30.107 36.936 30.2002 37.051C30.2933 37.166 30.4197 37.2306 30.5514 37.2306H33.5583C33.6236 37.2307 33.6882 37.2149 33.7484 37.1841C33.8087 37.1533 33.8635 37.1081 33.9096 37.0511C33.9558 36.9942 33.9923 36.9266 34.0173 36.8521C34.0422 36.7777 34.0551 36.698 34.055 36.6174V33.3236C34.0552 33.2429 34.0425 33.163 34.0176 33.0884C33.9927 33.0139 33.9562 32.9461 33.91 32.889C33.8639 32.8319 33.8091 32.7866 33.7487 32.7557C33.6883 32.7248 33.6236 32.7089 33.5583 32.709Z" fill="white"/>
<path d="M35.8338 12.7769H30.5262L28.5638 4.15059C28.5344 4.02185 28.4718 3.90847 28.3855 3.82769C28.2992 3.74691 28.1938 3.70317 28.0855 3.70312H8.2442C8.13587 3.70317 8.03052 3.74691 7.94419 3.82769C7.85786 3.90847 7.79526 4.02185 7.76594 4.15059L5.80324 12.7769H0.496707C0.365119 12.7769 0.238909 12.8414 0.145783 12.9561C0.0526566 13.0709 0.000225578 13.2266 0 13.3891L0 36.9676C0.00075122 37.7805 0.26265 38.5598 0.72824 39.1346C1.19383 39.7094 1.82509 40.0327 2.48353 40.0337H33.847C34.5055 40.0327 35.1367 39.7094 35.6023 39.1346C36.0679 38.5598 36.3298 37.7805 36.3305 36.9676V13.3891C36.3304 13.2266 36.278 13.0708 36.1848 12.956C36.0917 12.8413 35.9655 12.7768 35.8338 12.7769ZM8.62056 4.92955H27.71L29.495 12.7769H27.5791L26.4134 7.65466C26.3842 7.52592 26.3217 7.41251 26.2354 7.33172C26.1491 7.25093 26.0438 7.2072 25.9355 7.20719H10.3951C10.2868 7.20724 10.1814 7.25098 10.0951 7.33176C10.0087 7.41253 9.94614 7.52592 9.91682 7.65466L8.7514 12.7769H6.83497L8.62056 4.92955ZM26.5474 12.7769H9.78342L10.7714 8.43362H25.5591L26.5474 12.7769ZM0.993413 14.0033H35.3371V21.4134C35.3367 21.9011 35.1795 22.3687 34.9002 22.7136C34.6208 23.0585 34.2421 23.2525 33.847 23.253H2.48353C2.08847 23.2525 1.70971 23.0585 1.43036 22.7136C1.151 22.3687 0.993864 21.9011 0.993413 21.4134V14.0033ZM25.0056 24.4781V28.0872H23.1607V24.4781H25.0056ZM13.1698 24.4781V28.0872H11.3249V24.4781H13.1698ZM35.3371 36.9687C35.3367 37.4564 35.1795 37.924 34.9002 38.2689C34.6208 38.6137 34.2421 38.8077 33.847 38.8083H2.48353C2.08847 38.8077 1.70971 38.6137 1.43036 38.2689C1.151 37.924 0.993864 37.4564 0.993413 36.9687V23.8634C1.42391 24.2602 1.9463 24.4757 2.48353 24.4781H10.3315V28.7019C10.3315 28.8645 10.3838 29.0205 10.477 29.1355C10.5701 29.2505 10.6965 29.3151 10.8282 29.3151H13.6665C13.7982 29.315 13.9245 29.2503 14.0177 29.1354C14.1108 29.0204 14.1632 28.8645 14.1632 28.7019V24.4777H22.1673V28.7019C22.1673 28.8645 22.2196 29.0205 22.3128 29.1355C22.4059 29.2505 22.5323 29.3151 22.664 29.3151H25.5023C25.6341 29.315 25.7603 29.2503 25.8535 29.1354C25.9466 29.0204 25.999 28.8645 25.999 28.7019V24.4777H33.847C34.3842 24.4752 34.9066 24.2597 35.3371 23.8631V36.9687Z" fill="white"/>
</g>
<defs>
<clipPath id="clip0_3729_923">
<rect width="39" height="39" fill="white"/>
</clipPath>
</defs>
</svg>
