<svg width="29" height="46" viewBox="0 0 29 46" fill="none" xmlns="http://www.w3.org/2000/svg">
<circle cx="14.2313" cy="14.2313" r="14.2313" fill="#034833"/>
<path d="M13.4297 27.8155C13.4297 27.2915 13.8545 26.8667 14.3784 26.8667V26.8667C14.9024 26.8667 15.3272 27.2915 15.3272 27.8155V44.893C15.3272 45.417 14.9024 45.8418 14.3784 45.8418V45.8418C13.8545 45.8418 13.4297 45.417 13.4297 44.893V27.8155Z" fill="#034833"/>
<path d="M6.5 13.167H7.37123M7.37123 13.167H20.6288M7.37123 13.167C7.38051 13.1241 7.39147 13.0816 7.40413 13.0396C7.43435 12.9393 7.47702 12.8429 7.56283 12.6499L8.85138 9.75065C9.10614 9.17744 9.23373 8.89066 9.43508 8.6805C9.61306 8.49473 9.83136 8.35283 10.0734 8.26564C10.3472 8.16699 10.6611 8.16699 11.2884 8.16699H16.7113C17.3386 8.16699 17.6528 8.16699 17.9266 8.26564C18.1687 8.35283 18.3866 8.49473 18.5646 8.6805C18.7658 8.89052 18.8932 9.17706 19.1476 9.7495L20.4413 12.6604C20.524 12.8465 20.5661 12.9412 20.5958 13.0396C20.6085 13.0816 20.6195 13.1241 20.6288 13.167M7.37123 13.167C7.36085 13.215 7.35258 13.2635 7.34643 13.3123C7.33333 13.4161 7.33333 13.5217 7.33333 13.733V18.167M20.6288 13.167H21.5M20.6288 13.167C20.6392 13.215 20.6475 13.2635 20.6536 13.3123C20.6667 13.4155 20.6667 13.5205 20.6667 13.7292V18.1671M20.6667 18.1671L17.3333 18.1671M20.6667 18.1671V19.0002C20.6667 19.9207 19.9205 20.667 19 20.667C18.0795 20.667 17.3333 19.9208 17.3333 19.0003V18.1671M17.3333 18.1671L10.6667 18.167M10.6667 18.167H7.33333M10.6667 18.167V19.0003C10.6667 19.9208 9.92047 20.667 9 20.667C8.07953 20.667 7.33333 19.9208 7.33333 19.0003V18.167" stroke="white" stroke-width="1.66667" stroke-linecap="round" stroke-linejoin="round"/>
</svg>
