<svg width="73" height="117" viewBox="0 0 73 117" fill="none" xmlns="http://www.w3.org/2000/svg">
<circle cx="36.0193" cy="36.0193" r="36.0193" fill="#034833"/>
<path d="M34 70.4013C34 69.0751 35.0751 68 36.4013 68C37.7275 68 38.8026 69.0751 38.8026 70.4013V113.624C38.8026 114.951 37.7275 116.026 36.4013 116.026C35.0751 116.026 34 114.951 34 113.624V70.4013Z" fill="#034833"/>
<circle cx="35.9974" cy="25.6673" r="8.33333" fill="white"/>
<path d="M23.6323 40.292C24.6796 37.619 27.3525 36.084 30.2233 36.084H41.7715C44.6423 36.084 47.3152 37.619 48.3625 40.292C49.352 42.8178 50.3823 46.205 50.5554 49.6676C50.583 50.2192 50.133 50.6673 49.5807 50.6673H22.4141C21.8618 50.6673 21.4118 50.2192 21.4394 49.6676C21.6125 46.205 22.6428 42.8178 23.6323 40.292Z" fill="white"/>
</svg>
